# xmcd CD database file
#
# Track frame offsets:
#	150
#	17875
#	43433
#	59865
#	84360
#	103235
#	127070
#	150723
#	167393
#	189953
#	213760
#	231323
#	259213
#	277308
#	301388
#
# Disc length: 4265 seconds
#
# Revision: 0
# Processed by: cddbd v1.5.1PL0 Copyright (c) Steve Scherf et al.
# Submitted via: CDex 1.51
#
DISCID=de10a70f
DTITLE=Various Artist - Sampler (Optimism Incorporated)
DYEAR=1987
DGENRE=Jazz
TTITLE0=Thanksgiving - Peter Kater
TTITLE1=Sausalito Ferry - Leslie Drayton and Fun
TTITLE2=For My Family - Crossing Point
TTITLE3=Your Eyes are Beautiful - Alphonse Mouzon
TTITLE4=In Search of Proper I.D. - Dan Siegel
TTITLE5=Barr Trail - Bill Shields
TTITLE6=You and I - David Collini
TTITLE7=Caribbean Rhapsody - Jakob Magnusson
TTITLE8=Just Another Pretty Song - Crossing Point
TTITLE9=Love Fantasy - Alphonse Mouzon
TTITLE10=40 Love - Dan Siegel
TTITLE11=Moving Up - Bill Shields
TTITLE12=Anyway - David Collini
TTITLE13=I'm Really Gonna Miss You - Leslie Drayton and Fun
TTITLE14=Emergence - Peter Kater
EXTD=YEAR: 1987
EXTT0=
EXTT1=
EXTT2=
EXTT3=
EXTT4=
EXTT5=
EXTT6=
EXTT7=
EXTT8=
EXTT9=
EXTT10=
EXTT11=
EXTT12=
EXTT13=
EXTT14=
PLAYORDER=
